<svg width="23" height="23" viewBox="0 0 23 23" fill="none" xmlns="http://www.w3.org/2000/svg">
<path opacity="0.4" d="M2.37469 11.2074C2.37469 7.10221 2.37469 5.04964 3.64999 3.77433C4.9253 2.49902 6.97788 2.49902 11.083 2.49902C15.1881 2.49902 17.2407 2.49902 18.5161 3.77433C19.7914 5.04964 19.7914 7.10221 19.7914 11.2074C19.7914 15.3125 19.7914 17.3651 18.5161 18.6404C17.2407 19.9157 15.1881 19.9157 11.083 19.9157C6.97788 19.9157 4.9253 19.9157 3.64999 18.6404C2.37469 17.3651 2.37469 15.3125 2.37469 11.2074Z" fill="#262222"/>
<path d="M6.49969 15.7907V12.124" stroke="#262222" stroke-width="1.5" stroke-linecap="round"/>
<path d="M11.083 15.7907V6.62402" stroke="#262222" stroke-width="1.5" stroke-linecap="round"/>
<path d="M15.6664 15.7905V10.2905" stroke="#262222" stroke-width="1.5" stroke-linecap="round"/>
<path d="M2.37469 11.2074C2.37469 7.10221 2.37469 5.04964 3.64999 3.77433C4.9253 2.49902 6.97788 2.49902 11.083 2.49902C15.1881 2.49902 17.2407 2.49902 18.5161 3.77433C19.7914 5.04964 19.7914 7.10221 19.7914 11.2074C19.7914 15.3125 19.7914 17.3651 18.5161 18.6404C17.2407 19.9157 15.1881 19.9157 11.083 19.9157C6.97788 19.9157 4.9253 19.9157 3.64999 18.6404C2.37469 17.3651 2.37469 15.3125 2.37469 11.2074Z" stroke="#262222" stroke-width="1.5" stroke-linejoin="round"/>
</svg>
