<svg width="24" height="25" viewBox="0 0 24 25" fill="none" xmlns="http://www.w3.org/2000/svg">
<path fill-rule="evenodd" clip-rule="evenodd" d="M1.25 12.872C1.25 18.8091 6.06294 23.622 12 23.622C17.9371 23.622 22.75 18.8091 22.75 12.872C22.75 6.93495 17.9371 2.12201 12 2.12201C6.06294 2.12201 1.25 6.93495 1.25 12.872ZM16.6757 9.13486C17.0828 9.50805 17.1103 10.1406 16.7372 10.5477L11.2372 16.5477C11.0528 16.7488 10.7944 16.8658 10.5217 16.8718C10.249 16.8777 9.98576 16.772 9.79289 16.5791L7.29289 14.0791C6.90237 13.6886 6.90237 13.0554 7.29289 12.6649C7.68342 12.2744 8.31658 12.2744 8.70711 12.6649L10.4686 14.4264L15.2628 9.19629C15.636 8.78917 16.2686 8.76167 16.6757 9.13486Z" fill="#F60031"/>
</svg>
