<svg width="24" height="25" viewBox="0 0 24 25" fill="none" xmlns="http://www.w3.org/2000/svg">
<path d="M14.9527 2.5H9.04738V5.08152L7.15473 6.19367L4.95267 4.90192L2 10.0981L4.20152 11.3895L4.20153 13.6106L2.0001 14.9019L4.95277 20.0981L7.15477 18.8064L9.04738 19.9185V22.5H14.9527V19.9185L16.8453 18.8064L19.0472 20.0981L21.9999 14.9019L19.7986 13.6106V11.3894L22 10.0981L19.0473 4.90192L16.8453 6.19363L14.9527 5.08152V2.5Z" stroke="#F64A00" stroke-width="1.5" stroke-linejoin="round"/>
<path d="M8.5 16.5C9.19863 15.2923 10.5044 14.4797 12 14.4797C13.4955 14.4797 14.8013 15.2923 15.5 16.5M14 10C14 11.1046 13.1046 12 12 12C10.8954 12 10 11.1046 10 10C10 8.89546 10.8954 8.00003 12 8.00003C13.1046 8.00003 14 8.89546 14 10Z" stroke="#F64A00" stroke-width="1.5"/>
</svg>
