<svg width="23" height="22" viewBox="0 0 23 22" fill="none" xmlns="http://www.w3.org/2000/svg">
<path opacity="0.4" fill-rule="evenodd" clip-rule="evenodd" d="M11.3392 20.1666C16.4018 20.1666 20.5059 16.0625 20.5059 10.9999C20.5059 5.93731 16.4018 1.83325 11.3392 1.83325C6.27664 1.83325 2.17258 5.93731 2.17258 10.9999C2.17258 16.0625 6.27664 20.1666 11.3392 20.1666ZM11.3392 15.5833C13.8705 15.5833 15.9226 13.5312 15.9226 10.9999C15.9226 8.46862 13.8705 6.41659 11.3392 6.41659C8.80795 6.41659 6.75591 8.46862 6.75591 10.9999C6.75591 13.5312 8.80795 15.5833 11.3392 15.5833Z" fill="#262222"/>
<path d="M14.2095 2.29159C13.3066 1.99417 12.3417 1.83325 11.3392 1.83325C6.27663 1.83325 2.17258 5.93731 2.17258 10.9999C2.17258 16.0625 6.27663 20.1666 11.3392 20.1666C16.4018 20.1666 20.5059 16.0625 20.5059 10.9999C20.5059 10.0418 20.3589 9.11804 20.0863 8.24992" stroke="#262222" stroke-width="1.5" stroke-linecap="round"/>
<path d="M15.9226 11.0001C15.9226 13.5314 13.8705 15.5834 11.3393 15.5834C8.80795 15.5834 6.75592 13.5314 6.75592 11.0001C6.75592 8.46878 8.80795 6.41675 11.3393 6.41675" stroke="#262222" stroke-width="1.5" stroke-linecap="round" stroke-linejoin="round"/>
<path d="M18.2142 4.12492L11.3392 10.9999M18.2142 4.12492V1.83325M18.2142 4.12492H20.5059" stroke="#262222" stroke-width="1.5" stroke-linecap="round" stroke-linejoin="round"/>
</svg>
