<svg width="25" height="24" viewBox="0 0 25 24" fill="none" xmlns="http://www.w3.org/2000/svg">
<g clip-path="url(#clip0_730_3838)">
<path d="M24.0079 12.2242C24.0079 11.2409 23.9295 10.5234 23.7598 9.7793H12.7295V14.2173H19.2041C19.0736 15.3202 18.3687 16.9811 16.8022 18.0972L16.7803 18.2458L20.2678 20.996L20.5095 21.0205C22.7286 18.9344 24.0079 15.8649 24.0079 12.2242Z" fill="#4285F4"/>
<path d="M12.7295 23.9178C15.9015 23.9178 18.5644 22.8548 20.5095 21.0211L16.8022 18.0978C15.8102 18.8021 14.4787 19.2937 12.7295 19.2937C9.62275 19.2937 6.98593 17.2076 6.04598 14.3242L5.9082 14.3361L2.28175 17.193L2.23433 17.3272C4.16625 21.2337 8.13457 23.9178 12.7295 23.9178Z" fill="#34A853"/>
<path d="M6.0461 14.3248C5.79809 13.5807 5.65456 12.7834 5.65456 11.9596C5.65456 11.1357 5.79809 10.3385 6.03306 9.59439L6.02649 9.43592L2.3546 6.5332L2.23446 6.59137C1.43822 8.21247 0.981339 10.0329 0.981339 11.9596C0.981339 13.8863 1.43822 15.7066 2.23446 17.3277L6.0461 14.3248Z" fill="#FBBC05"/>
<path d="M12.7295 4.62403C14.9355 4.62403 16.4236 5.59401 17.2721 6.40461L20.5878 3.10928C18.5514 1.1826 15.9015 0 12.7295 0C8.13457 0 4.16625 2.68406 2.23433 6.59056L6.03292 9.59359C6.98593 6.7102 9.62274 4.62403 12.7295 4.62403Z" fill="#EB4335"/>
</g>
<defs>
<clipPath id="clip0_730_3838">
<rect width="23.04" height="24" fill="white" transform="translate(0.980003)"/>
</clipPath>
</defs>
</svg>
