<svg width="23" height="23" viewBox="0 0 23 23" fill="none" xmlns="http://www.w3.org/2000/svg">
<path opacity="0.4" d="M3.64297 11.0943V13.3955C3.64297 16.4203 3.64297 17.9327 4.58267 18.8725C5.52236 19.8122 7.03479 19.8122 10.0596 19.8122H13.7263C16.7511 19.8122 18.2635 19.8122 19.2033 18.8725C20.143 17.9327 20.143 16.4203 20.143 13.3955V11.0943C20.143 9.55312 20.143 8.78259 19.8167 8.11555C19.4905 7.44851 18.8823 6.97543 17.6658 6.02928L15.8324 4.60334C13.94 3.13145 12.9938 2.39551 11.893 2.39551C10.7921 2.39551 9.84595 3.13145 7.95352 4.60334L6.12018 6.02928C4.90369 6.97543 4.29544 7.44851 3.96921 8.11555C3.64297 8.78259 3.64297 9.55312 3.64297 11.0943Z" fill="#F64A00"/>
<path d="M3.64297 11.0943V13.3955C3.64297 16.4203 3.64297 17.9327 4.58267 18.8725C5.52236 19.8122 7.03479 19.8122 10.0596 19.8122H13.7263C16.7511 19.8122 18.2635 19.8122 19.2033 18.8725C20.143 17.9327 20.143 16.4203 20.143 13.3955V11.0943C20.143 9.55312 20.143 8.78259 19.8167 8.11555C19.4905 7.44851 18.8823 6.97543 17.6658 6.02928L15.8324 4.60335C13.94 3.13145 12.9938 2.39551 11.893 2.39551C10.7921 2.39551 9.84595 3.13145 7.95352 4.60335L6.12018 6.02928C4.90369 6.97543 4.29544 7.44851 3.96921 8.11555C3.64297 8.78259 3.64297 9.55312 3.64297 11.0943Z" stroke="#F64A00" stroke-width="1.5" stroke-linecap="round" stroke-linejoin="round"/>
<path d="M14.6432 15.687C13.9103 16.2575 12.9475 16.6037 11.8932 16.6037C10.8387 16.6037 9.87604 16.2575 9.14314 15.687" stroke="#F64A00" stroke-width="1.5" stroke-linecap="round" stroke-linejoin="round"/>
</svg>
