<svg width="16" height="16" viewBox="0 0 16 16" fill="none" xmlns="http://www.w3.org/2000/svg">
<path fill-rule="evenodd" clip-rule="evenodd" d="M7.79287 15.1223L7.7966 15.1241C7.92587 15.1815 8.0738 15.1817 8.20307 15.1243L8.20553 15.1231C8.22067 15.1162 8.25793 15.0991 8.2802 15.0887C8.32753 15.0664 8.3956 15.0337 8.4814 14.9909C8.65293 14.9051 8.89587 14.7782 9.18647 14.6114C9.7664 14.2784 10.542 13.7832 11.3201 13.1348C12.8595 11.8519 14.5 9.89118 14.5 7.33398C14.5 3.74413 11.5899 0.833984 8 0.833984C4.41015 0.833984 1.5 3.74413 1.5 7.33398C1.5 9.89118 3.14051 11.8519 4.67991 13.1348C5.45802 13.7832 6.23359 14.2784 6.81353 14.6114C7.10413 14.7782 7.34707 14.9051 7.5186 14.9909C7.60227 15.0327 7.742 15.0984 7.79287 15.1223ZM8 4.66732C6.52724 4.66732 5.33333 5.86122 5.33333 7.33398C5.33333 8.80672 6.52724 10.0007 8 10.0007C9.47273 10.0007 10.6667 8.80672 10.6667 7.33398C10.6667 5.86122 9.47273 4.66732 8 4.66732Z" fill="#1E1E1E"/>
</svg>
