<svg width="23" height="23" viewBox="0 0 23 23" fill="none" xmlns="http://www.w3.org/2000/svg">
<path opacity="0.4" d="M11.0739 3.31201C13.6051 3.31201 15.6572 5.36404 15.6572 7.89534C15.6572 10.4266 13.6051 12.4787 11.0739 12.4787C14.6177 12.4787 17.4905 15.3515 17.4905 18.8953H4.6572C4.6572 15.3515 7.53004 12.4787 11.0739 12.4787C8.54256 12.4787 6.49053 10.4266 6.49053 7.89534C6.49053 5.36404 8.54256 3.31201 11.0739 3.31201Z" fill="#262222"/>
<path d="M15.6572 7.89535C15.6572 5.36404 13.6052 3.31201 11.0739 3.31201C8.54257 3.31201 6.49054 5.36404 6.49054 7.89535C6.49054 10.4266 8.54257 12.4787 11.0739 12.4787C13.6052 12.4787 15.6572 10.4266 15.6572 7.89535Z" stroke="#262222" stroke-width="1.5" stroke-linecap="round" stroke-linejoin="round"/>
<path d="M17.4905 18.8954C17.4905 15.3516 14.6177 12.4788 11.0739 12.4788C7.53004 12.4788 4.6572 15.3516 4.6572 18.8954" stroke="#262222" stroke-width="1.5" stroke-linecap="round" stroke-linejoin="round"/>
</svg>
